<svg width="128" height="128" viewBox="0 0 128 128" fill="none" xmlns="http://www.w3.org/2000/svg">
<circle cx="64" cy="64" r="64" fill="#EA4242"/>
<path d="M66.3522 81.5867V85.2947L71.9044 88.482C73.0311 89.1289 73.4202 90.5665 72.7733 91.6928C72.3386 92.4502 71.5464 92.8746 70.7311 92.8746C70.3341 92.8746 69.9314 92.7739 69.5625 92.5617L64.0005 89.3683L58.4379 92.5617C58.0691 92.7739 57.6659 92.8746 57.2693 92.8746C56.4545 92.8746 55.6618 92.4507 55.2271 91.6928C54.5803 90.5661 54.9693 89.1284 56.096 88.482L61.6487 85.2947V81.5867C61.4751 81.4625 61.3076 81.3279 61.1529 81.1755L54.3883 74.5211C53.2084 73.36 52.8509 71.6203 53.478 70.0881C54.1051 68.5558 55.5804 67.566 57.2355 67.566H70.765C72.4205 67.566 73.8954 68.5558 74.5225 70.0881C75.1496 71.6203 74.792 73.36 73.6117 74.5211L66.8476 81.176C66.6928 81.3284 66.5258 81.463 66.3522 81.5867ZM102.047 47.8816C104.642 54.6283 112.808 78.47 103.551 89.9606C94.594 101.081 79.9213 104.926 73.6559 106.568C72.6924 106.82 71.8607 107.038 71.3531 107.203C67.0452 108.605 64.2987 108.645 63.9995 108.645C63.7003 108.645 60.9534 108.604 56.6451 107.203C56.1384 107.038 55.3062 106.82 54.3427 106.568C48.0773 104.926 33.4046 101.081 24.4473 89.9606C15.1903 78.4695 23.3568 54.6283 25.9518 47.8816C23.4372 45.9269 19 41.6092 19 35.4731C19 27.4892 25.7547 19.3547 32.3846 19.3547C32.4726 19.3547 32.5601 19.3561 32.6481 19.3594C37.0284 19.5105 40.6814 24.0879 42.6004 27.062C44.1919 26.0393 46.4434 24.9653 48.878 24.9653H79.122C81.5566 24.9653 83.8081 26.0393 85.3996 27.062C87.3186 24.0879 90.9721 19.5105 95.3524 19.3594C95.4408 19.3561 95.5274 19.3547 95.6158 19.3547C102.245 19.3547 109 27.4892 109 35.4731C109 41.6092 104.563 45.9269 102.047 47.8816ZM48.5125 60.1668C51.6103 60.1668 54.3267 58.0738 55.1189 55.0766C55.381 54.0868 54.9717 53.0405 54.1075 52.491L46.8974 47.9051C46.0313 47.3542 44.9103 47.4286 44.1241 48.0867C42.567 49.3908 41.6745 51.3018 41.6745 53.3294C41.6745 57.0995 44.7423 60.1668 48.5125 60.1668ZM80.4599 79.8851C80.4599 73.3238 77.5441 67.8294 71.7934 63.5545C69.5287 61.8713 66.8335 60.9812 64.0005 60.9812C61.167 60.9812 58.4718 61.8713 56.2071 63.5545C50.4563 67.8294 47.5405 73.3238 47.5405 79.8851C47.5405 90.0754 54.6325 94.4331 60.5822 96.2942C62.799 96.9872 65.202 96.9872 67.4187 96.2942C73.3675 94.4331 80.4599 90.0759 80.4599 79.8851ZM86.3255 53.3289C86.3255 51.3013 85.433 49.3908 83.8759 48.0863C83.0897 47.4281 81.9677 47.3533 81.1026 47.9047L73.8925 52.4906C73.0283 53.0401 72.619 54.0863 72.8811 55.0761C73.6733 58.0733 76.3897 60.1664 79.4875 60.1664C83.2582 60.1668 86.3255 57.0995 86.3255 53.3289Z" fill="black"/>
</svg>
