<svg id="Layer_2" enable-background="new 0 0 32 32" height="512" viewBox="0 0 32 32" width="512" xmlns="http://www.w3.org/2000/svg"><path d="m16 32c-8.822 0-16-7.178-16-16s7.178-16 16-16 16 7.178 16 16-7.178 16-16 16zm0-30c-7.72 0-14 6.28-14 14s6.28 14 14 14 14-6.28 14-14-6.28-14-14-14zm5.126 20.15c-.257 0-.513-.098-.709-.294l-4.42-4.442-4.441 4.421c-.393.389-1.025.387-1.415-.003-.389-.392-.388-1.025.003-1.415l4.442-4.42-4.421-4.441c-.389-.392-.388-1.025.003-1.415.392-.39 1.024-.388 1.415.003l4.42 4.442 4.441-4.421c.392-.39 1.024-.388 1.415.003.389.392.388 1.025-.003 1.415l-4.442 4.42 4.421 4.441c.389.392.388 1.025-.003 1.415-.196.194-.451.291-.706.291z"/></svg>