<svg id="Layer_2" enable-background="new 0 0 32 32" height="512" viewBox="0 0 32 32" width="512" xmlns="http://www.w3.org/2000/svg"><path d="m16 32c-8.822 0-16-7.178-16-16s7.178-16 16-16 16 7.178 16 16-7.178 16-16 16zm0-30c-7.72 0-14 6.28-14 14s6.28 14 14 14 14-6.28 14-14-6.28-14-14-14zm-2.869 19.389c-.767 0-1.534-.284-2.12-.852l-3.428-3.319c-.396-.384-.407-1.017-.022-1.414.384-.398 1.017-.408 1.414-.022l3.428 3.319c.398.386 1.069.383 1.464-.006l9.152-9.018c.392-.387 1.026-.382 1.414.011s.383 1.026-.011 1.414l-9.152 9.018c-.588.579-1.364.869-2.139.869z"/></svg>