<svg height="512" viewBox="0 0 52 58" width="512" xmlns="http://www.w3.org/2000/svg"><g id="Page-1" fill="none" fill-rule="evenodd"><g id="053---Diamond-Dice"><path id="Path" d="m50.96 13.43-24.01-13.19c-.5929027-.32003788-1.3070973-.32003788-1.9 0l-24.01 13.19c-.63981595.3500747-1.0383445 1.0206756-1.04 1.75v27.64c.00010557.3589667.09682141.7112886.28 1.02.18258136.3076439.44525617.5599499.76.73l24.01 13.19c.5929027.3200379 1.3070973.3200379 1.9 0l24.01-13.19c.3147438-.1700501.5774186-.4223561.76-.73.1831786-.3087114.2798944-.6610333.28-1.02v-27.64c-.0016555-.7293244-.400184-1.3999253-1.04-1.75z" fill="#3d324c"/><path id="Path" d="m26 7-17 32-9-23.82c.0016555-.7293244.40018405-1.3999253 1.04-1.75z" fill="#894b9d"/><path id="Path" d="m26-.00001383v7.00001383l-24.96 6.43 24.01-13.19c.2914158-.15869202.6181796-.24124285.95-.24001383z" fill="#955ba5"/><path id="Path" d="m50.96 13.43-24.96-6.43v-7.00001383c.3318204-.00122902.6585842.08132181.95.24001383z" fill="#b49aca"/><path id="Path" d="m52 15.18-9 23.82-17-32 24.96 6.43c.639816.3500747 1.0383445 1.0206756 1.04 1.75z" fill="#894b9d"/><path id="Path" d="m9 39-8.72 4.84c-.18317859-.3087114-.27989443-.6610333-.28-1.02v-27.64z" fill="#5d4c72"/><path id="Path" d="m52 15.18v27.64c-.0001056.3589667-.0968214.7112886-.28 1.02l-8.72-4.84z" fill="#5d4c72"/><path id="Path" d="m43 39h-34l17-32z" fill="#955ba5"/><path id="Path" d="m43 39-17 19-17-19z" fill="#5d4c72"/><circle id="Oval" cx="6" cy="17" fill="#fff" r="1"/><circle id="Oval" cx="13" cy="16" fill="#fff" r="1"/><circle id="Oval" cx="30" cy="29" fill="#fff" r="1"/><circle id="Oval" cx="22" cy="23" fill="#fff" r="1"/><g fill="#b49aca"><circle id="Oval" cx="19" cy="43" r="1"/><circle id="Oval" cx="26" cy="43" r="1"/><circle id="Oval" cx="29" cy="47" r="1"/><circle id="Oval" cx="23" cy="47" r="1"/><circle id="Oval" cx="33" cy="43" r="1"/></g><circle id="Oval" cx="9" cy="24" fill="#fff" r="1"/><circle id="Oval" cx="46" cy="17" fill="#fff" r="1"/><circle id="Oval" cx="37" cy="15" fill="#fff" r="1"/><circle id="Oval" cx="43" cy="25" fill="#fff" r="1"/><circle id="Oval" cx="40" cy="20" fill="#fff" r="1"/></g></g></svg>